
<svg height="150px" viewBox="0 -104 464 464" width="150px" xmlns="http://www.w3.org/2000/svg">

<!-- TARGET -->
<path d="m48 48h64v16h-64zm0 0"/>
<!-- TARGET -->
<path d="m195.039062 48h-67.039062v16h63.839844zm0 0"/>
<!-- TARGET -->
<path d="m0 40h32.007812v32h-32.007812zm0 0"/>

<!-- front line thing -->
<path d="m124.550781 192 4.921875-16h-49.472656v16zm0 0"/>


<!-- middle cish  -->
<path d="m325.777344 144c-2.777344-4.761719-7.882813-8-13.777344-8-8.824219 0-16 7.175781-16 16s7.175781 16 16 16c5.894531 0 11-3.238281 13.777344-8h-13.777344v-16zm0 0"/>

<!-- top two 1/2 -->
<path d="m288 32h-66.878906c-3.808594 0-7.105469 2.703125-7.839844 6.425781l-11.511719 57.574219h86.230469zm0 0"/>

<!-- top two 2/2 -->
<path d="m304 96h86.238281l-11.511719-57.566406c-.742187-3.730469-4.039062-6.433594-7.839843-6.433594h-66.886719zm32-40h16v16h-16zm0 0"/>

<!-- arrow shape thing left -->
<path d="m195.3125 160h20.6875v-16h-20.6875l-8 8zm0 0"/>

<!-- MAIN ENGINE -->
<path d="m342.863281 144h25.136719v-32h-196.175781c-3.527344 0-6.609375 2.273438-7.648438 5.65625l-22.878906 74.34375h226.703125v-32h-25.136719c-3.574219 13.769531-15.992187 24-30.863281 24-17.648438 0-32-14.351562-32-32s14.351562-32 32-32c14.871094 0 27.289062 10.238281 30.863281 24zm-110.863281 32h-43.3125l-24-24 24-24h43.3125zm0 0"/>

<!-- TOP -->
<path d="m240 0h112v16h-112zm0 0"/>

<!-- wheels -->
<path d="m144 208c-13.230469 0-24 10.769531-24 24s10.769531 24 24 24 24-10.769531 24-24-10.769531-24-24-24zm8 32h-16v-16h16zm0 0"/>

<!-- wheel -->
<path d="m320 208c-13.230469 0-24 10.769531-24 24s10.769531 24 24 24 24-10.769531 24-24-10.769531-24-24-24zm8 32h-16v-16h16zm0 0"/>
<!-- wheel -->
<path d="m408 208c-13.230469 0-24 10.769531-24 24s10.769531 24 24 24 24-10.769531 24-24-10.769531-24-24-24zm8 32h-16v-16h16zm0 0"/>
<!-- wheel -->
<path d="m232 208c-13.230469 0-24 10.769531-24 24s10.769531 24 24 24 24-10.769531 24-24-10.769531-24-24-24zm8 32h-16v-16h16zm0 0"/>

<!-- back thingy with two holes -->
<path d="m421.574219 112h-37.574219v80h43.886719l36.113281-50.558594v-1.160156zm2.425781 64h-24v-16h24zm0-32h-24v-16h24zm0 0"/>

<path d="m112 208c-13.230469 0-24 10.769531-24 24s10.769531 24 24 24h.207031c-5.078125-6.703125-8.207031-14.960938-8.207031-24s3.128906-17.296875 8.207031-24zm0 0"/>


<!-- wheel shadow -->
<path d="m351.792969 208c5.078125 6.703125 8.207031 14.960938 8.207031 24s-3.128906 17.296875-8.207031 24h24.40625c-5.078125-6.703125-8.207031-14.960938-8.207031-24s3.128906-17.296875 8.207031-24zm0 0"/>

<!-- wheel shadow 2-->
<path d="m175.792969 208c5.078125 6.703125 8.207031 14.960938 8.207031 24s-3.128906 17.296875-8.207031 24h24.40625c-5.078125-6.703125-8.207031-14.960938-8.207031-24s3.128906-17.296875 8.207031-24zm0 0"/>

<!-- wheel shadow 3 -->
<path d="m263.792969 208c5.078125 6.703125 8.207031 14.960938 8.207031 24s-3.128906 17.296875-8.207031 24h24.40625c-5.078125-6.703125-8.207031-14.960938-8.207031-24s3.128906-17.296875 8.207031-24zm0 0"/>


<!-- wheel shadow 4 -->
<path d="m440 208h-.207031c5.078125 6.703125 8.207031 14.960938 8.207031 24s-3.128906 17.296875-8.207031 24h.207031c13.230469 0 24-10.769531 24-24s-10.769531-24-24-24zm0 0"/>

</svg>